<svg width="800" height="800" viewBox="0 0 800 800" fill="none" xmlns="http://www.w3.org/2000/svg">
<g clip-path="url(#clip0_93_97)">
<path d="M400 -0.78125C178.645 -0.78125 -0.78125 178.645 -0.78125 400C-0.78125 621.355 178.645 800.781 400 800.781C621.355 800.781 800.781 621.355 800.781 400C800.781 178.645 621.355 -0.78125 400 -0.78125ZM400 738.159C213.234 738.159 61.8406 586.766 61.8406 400C61.8406 213.234 213.234 61.8406 400 61.8406C586.766 61.8406 738.159 213.234 738.159 400C738.159 586.766 586.766 738.159 400 738.159Z" fill="white"/>
<path d="M208.563 369.717C193.884 383.269 197.653 412.525 216.977 435.128C236.302 457.706 263.845 465.02 278.498 451.42C293.152 437.916 289.384 408.612 270.059 386.058C250.734 363.503 223.191 356.164 208.563 369.717Z" fill="white"/>
<path d="M529.427 380.87C512.23 405.284 511.155 434.808 527.005 446.844C542.831 458.83 569.594 448.897 586.766 424.461C603.938 400.097 605.014 370.597 589.188 358.537C573.36 346.526 546.575 356.531 529.427 380.87Z" fill="white"/>
<path d="M353.327 375.195C379.134 368.981 392.563 330.43 383.294 289.091C374.095 247.75 345.672 219.277 319.864 225.489C294.081 231.752 280.677 270.303 289.874 311.644C299.144 352.936 327.544 381.409 353.327 375.195Z" fill="white"/>
<path d="M482.902 225.489C457.119 219.275 428.719 247.75 419.472 289.091C410.225 330.431 423.63 368.983 449.461 375.195C475.219 381.408 503.644 352.934 512.891 311.644C522.163 270.305 508.685 231.751 482.902 225.489Z" fill="white"/>
<path d="M400 410.177C338.478 410.177 292.294 508.145 292.294 540.558C292.294 620.253 338.478 538.037 400 538.037C461.547 538.037 507.706 620.253 507.706 540.558C507.706 508.145 461.547 410.177 400 410.177Z" fill="white"/>
</g>
<defs>
<clipPath id="clip0_93_97">
<rect width="800" height="800" fill="white"/>
</clipPath>
</defs>
</svg>
