<svg width="800" height="800" viewBox="0 0 800 800" fill="none" xmlns="http://www.w3.org/2000/svg">
<path d="M728.333 705L495 471.667C493.503 470.072 491.696 468.802 489.69 467.933C487.683 467.064 485.52 466.616 483.333 466.616C481.147 466.616 478.983 467.064 476.977 467.933C474.97 468.802 473.163 470.072 471.666 471.667L416.666 526.333L266.666 376.333V300H366.666V333.333C366.666 337.754 368.422 341.993 371.548 345.119C374.674 348.244 378.913 350 383.333 350H583.333C586.407 349.965 589.416 349.113 592.052 347.531C594.688 345.95 596.856 343.696 598.333 341C599.644 338.229 600.181 335.155 599.888 332.104C599.594 329.052 598.481 326.137 596.666 323.667L537.333 241.667L596.666 159.667C598.756 157.36 600.171 154.523 600.759 151.467C601.347 148.41 601.084 145.251 600 142.333C598.394 139.378 595.964 136.954 593.005 135.356C590.045 133.757 586.685 133.055 583.333 133.333H466.666V83.3334C466.666 78.9131 464.911 74.6739 461.785 71.5483C458.659 68.4227 454.42 66.6667 450 66.6667H250C245.58 66.6667 241.34 68.4227 238.215 71.5483C235.089 74.6739 233.333 78.9131 233.333 83.3334V376.333L81.3332 528.333C72.0148 537.742 66.7502 550.425 66.6665 563.667V683.333C66.6665 696.594 71.9343 709.312 81.3112 718.689C90.688 728.066 103.406 733.333 116.667 733.333H716.666C719.957 733.317 723.169 732.327 725.898 730.488C728.626 728.649 730.749 726.044 732 723C733.361 719.996 733.74 716.638 733.081 713.406C732.423 710.174 730.761 707.232 728.333 705ZM550.667 166.667L503.333 233.333C501.224 236.115 500.083 239.51 500.083 243C500.083 246.491 501.224 249.885 503.333 252.667L550.667 319.333H400V300H450C454.42 300 458.659 298.244 461.785 295.119C464.911 291.993 466.666 287.754 466.666 283.333V166.667H550.667ZM433.333 266.667H266.666V100H433.333V266.667ZM116.667 700C112.246 700 108.007 698.244 104.881 695.119C101.756 691.993 99.9998 687.754 99.9998 683.333V563.667C99.9732 561.481 100.404 559.314 101.265 557.304C102.127 555.295 103.399 553.488 105 552L250 407L405 561.667L543 700H116.667ZM590.333 700L440.333 550L483.333 507L676.333 700H590.333Z" fill="white"/>
</svg>
