<svg width="800" height="800" viewBox="0 0 800 800" fill="none" xmlns="http://www.w3.org/2000/svg">
<path d="M451.75 205.425L500 125L450 75H350L300 125L348.25 205.425C235.025 229.275 150 329.675 150 450C150 588.075 261.925 700 400 700C538.075 700 650 588.075 650 450C650 329.675 564.975 229.275 451.75 205.425ZM370.725 125H429.3L437.05 132.75L400 194.475L362.95 132.75L370.725 125ZM400 650C289.725 650 200 560.275 200 450C200 339.725 289.725 250 400 250C510.275 250 600 339.725 600 450C600 560.275 510.275 650 400 650Z" fill="white"/>
</svg>
