<svg width="800" height="800" viewBox="0 0 800 800" fill="none" xmlns="http://www.w3.org/2000/svg">
<g clip-path="url(#clip0_93_29)">
<path fill-rule="evenodd" clip-rule="evenodd" d="M689.9 595.724C642.025 579.799 590.55 567.901 536.375 560.201C543.75 516.875 547.675 471.475 548.925 425H749.05C744.575 488.025 723.4 546.349 689.9 595.724ZM485.85 738.976C502.5 698.751 516.125 655.276 526.6 609.476C571.55 616.126 614.65 625.95 655.475 638.85C610.375 686.925 551.825 722.301 485.85 738.976ZM424.275 748.775C416.225 749.35 408.2 750 400 750C391.8 750 383.8 749.35 375.725 748.775C354.45 704.475 337.225 655.175 324.475 602.85C349.325 600.675 374.5 599.4 400 599.4C425.5 599.4 450.675 600.675 475.55 602.85C462.775 655.175 445.55 704.475 424.275 748.775ZM144.525 638.85C185.35 625.95 228.45 616.126 273.4 609.476C283.875 655.276 297.5 698.751 314.15 738.976C248.175 722.301 189.65 686.925 144.525 638.85ZM110.1 595.724C76.6002 546.349 55.4249 488.025 50.9499 425H251.075C252.325 471.475 256.25 516.875 263.625 560.201C209.45 567.901 157.975 579.799 110.1 595.724ZM110.1 204.276C157.975 220.201 209.45 232.124 263.625 239.799C256.25 283.125 252.325 328.525 251.075 375H50.9499C55.4249 311.975 76.6002 253.651 110.1 204.276ZM314.15 61.0245C297.5 101.249 283.875 144.724 273.4 190.524C228.45 183.899 185.35 174.05 144.525 161.15C189.65 113.075 248.175 77.6995 314.15 61.0245ZM375.725 51.2253C383.8 50.6753 391.8 50 400 50C408.2 50 416.225 50.6753 424.275 51.2253C445.55 95.5253 462.775 144.85 475.55 197.15C450.675 199.325 425.5 200.6 400 200.6C374.5 200.6 349.325 199.325 324.475 197.15C337.225 144.85 354.45 95.5253 375.725 51.2253ZM498.85 425C497.5 469.025 493.5 512.325 485.975 553.9C457.825 551.45 429.2 550 400 550C370.8 550 342.175 551.45 314.05 553.9C306.5 512.325 302.5 469.025 301.175 425H498.85ZM301.175 375C302.5 330.975 306.5 287.675 314.05 246.1C342.175 248.55 370.8 250 400 250C429.2 250 457.825 248.55 485.95 246.1C493.5 287.675 497.5 330.975 498.85 375H301.175ZM655.475 161.15C614.65 174.05 571.55 183.899 526.6 190.524C516.125 144.724 502.5 101.249 485.85 61.0245C551.825 77.6995 610.375 113.075 655.475 161.15ZM689.9 204.276C723.4 253.651 744.575 311.975 749.05 375H548.925C547.675 328.525 543.75 283.125 536.375 239.799C590.55 232.124 642.025 220.201 689.9 204.276ZM400 0C179.1 0 0 179.075 0 400C0 620.925 179.1 800 400 800C620.9 800 800 620.925 800 400C800 179.075 620.9 0 400 0Z" fill="white"/>
</g>
<defs>
<clipPath id="clip0_93_29">
<rect width="800" height="800" fill="white"/>
</clipPath>
</defs>
</svg>
