<svg width="800" height="800" viewBox="0 0 800 800" fill="none" xmlns="http://www.w3.org/2000/svg">
<path d="M483.333 316.671H316.667M100.944 333.337L340.82 493.89C362.203 508.147 372.897 515.273 384.453 518.043C394.663 520.49 405.31 520.49 415.523 518.043C427.08 515.273 437.773 508.147 459.157 493.89L699.033 333.337M343.27 135.631L149.938 257.046C131.707 268.496 122.592 274.22 115.98 281.959C110.128 288.808 105.725 296.772 103.037 305.371C100 315.085 100 325.849 100 347.377V560.003C100 597.34 100 616.01 107.266 630.27C113.658 642.813 123.856 653.013 136.401 659.403C150.661 666.67 169.33 666.67 206.667 666.67H593.333C630.67 666.67 649.34 666.67 663.6 659.403C676.143 653.013 686.343 642.813 692.733 630.27C700 616.01 700 597.34 700 560.003V347.377C700 325.849 700 315.085 696.963 305.371C694.273 296.772 689.873 288.808 684.02 281.959C677.41 274.22 668.293 268.496 650.063 257.046L456.73 135.63C436.153 122.71 425.867 116.249 414.83 113.731C405.067 111.504 394.933 111.504 385.17 113.731C374.133 116.249 363.847 122.71 343.27 135.631Z" stroke="white" stroke-width="66.6667" stroke-linecap="round" stroke-linejoin="round"/>
</svg>
