<?xml version="1.0" encoding="iso-8859-1"?>
<!-- Uploaded to: SVG Repo, www.svgrepo.com, Generator: SVG Repo Mixer Tools -->
<!DOCTYPE svg PUBLIC "-//W3C//DTD SVG 1.1//EN" "http://www.w3.org/Graphics/SVG/1.1/DTD/svg11.dtd">
<svg fill="#000000" version="1.1" id="Capa_1" xmlns="http://www.w3.org/2000/svg" xmlns:xlink="http://www.w3.org/1999/xlink" 
	 width="800px" height="800px" viewBox="0 0 600.305 600.306"
	 xml:space="preserve">
<g>
	<g>
		<path d="M147.092,280.833v127.662c0,32.059,26.082,58.141,58.14,58.141h0.289l9.324,81.628
			c3.357,29.384,28.19,51.542,57.764,51.542h55.087c29.574,0,54.408-22.158,57.766-51.542l9.322-81.628h0.289
			c32.059,0,58.141-26.082,58.141-58.141V280.833c0-32.059-26.082-58.14-58.141-58.14H205.232
			C173.174,222.693,147.092,248.775,147.092,280.833z M189.932,280.833c0-8.45,6.85-15.3,15.3-15.3h189.843
			c8.449,0,15.299,6.85,15.299,15.3v127.662c0,8.45-6.85,15.3-15.299,15.3h-24.961c-8.451,0-15.301,6.851-15.301,15.301
			l-11.914,104.306c-0.883,7.728-7.424,13.564-15.201,13.564H272.61c-7.778,0-14.318-5.837-15.201-13.564l-11.914-104.306
			c0-8.45-6.85-15.301-15.3-15.301h-24.963c-8.45,0-15.3-6.85-15.3-15.3V280.833z"/>
		<path d="M327.696,600.306h-55.087c-29.828,0-54.875-22.349-58.261-51.985l-9.273-81.185
			c-32.261-0.087-58.482-26.359-58.482-58.641V280.833c0-32.334,26.306-58.64,58.64-58.64h189.841
			c32.335,0,58.641,26.306,58.641,58.64v127.662c0,32.281-26.223,58.554-58.483,58.641l-9.271,81.185
			C382.572,577.957,357.525,600.306,327.696,600.306z M205.232,223.193c-31.783,0-57.64,25.857-57.64,57.64v127.662
			c0,31.783,25.857,57.641,57.64,57.641h0.735l0.05,0.443l9.324,81.628c3.328,29.131,27.948,51.099,57.268,51.099h55.087
			c29.32,0,53.94-21.968,57.269-51.099l9.373-82.071h0.735c31.783,0,57.641-25.857,57.641-57.641V280.833
			c0-31.783-25.857-57.64-57.641-57.64H205.232z M327.698,557.466H272.61c-8.037,0-14.786-6.022-15.698-14.008l-11.914-104.306
			c-0.003-8.218-6.643-14.857-14.804-14.857h-24.963c-8.712,0-15.8-7.088-15.8-15.8V280.833c0-8.712,7.088-15.8,15.8-15.8h189.843
			c8.712,0,15.799,7.088,15.799,15.8v127.662c0,8.712-7.087,15.8-15.799,15.8h-24.961c-8.161,0-14.801,6.64-14.801,14.801
			l-11.917,104.362C342.484,551.443,335.735,557.466,327.698,557.466z M205.232,266.033c-8.161,0-14.8,6.639-14.8,14.8v127.662
			c0,8.16,6.639,14.8,14.8,14.8h24.963c8.712,0,15.8,7.088,15.8,15.801l11.911,104.249c0.854,7.48,7.176,13.121,14.705,13.121
			h55.087c7.528,0,13.85-5.641,14.704-13.121l11.914-104.306c-0.003-8.656,7.085-15.744,15.798-15.744h24.961
			c8.16,0,14.799-6.64,14.799-14.8V280.833c0-8.161-6.639-14.8-14.799-14.8H205.232z"/>
	</g>
	<g>
		<path d="M230.874,167.756c8.984,8.984,19.458,16.043,31.13,20.979c12.106,5.121,24.942,7.717,38.149,7.717
			c13.208,0,26.042-2.596,38.15-7.717c11.672-4.937,22.146-11.995,31.129-20.979c8.984-8.984,16.043-19.457,20.98-31.129
			c5.121-12.106,7.717-24.942,7.717-38.149s-2.596-26.043-7.717-38.15c-4.938-11.672-11.996-22.146-20.98-31.129
			c-8.982-8.984-19.457-16.043-31.129-20.979C326.196,3.097,313.362,0.5,300.153,0.5c-13.208,0-26.043,2.596-38.149,7.717
			c-11.672,4.937-22.146,11.995-31.13,20.979c-8.984,8.984-16.042,19.458-20.979,31.129c-5.121,12.106-7.717,24.942-7.717,38.149
			c0,13.208,2.596,26.043,7.717,38.15C214.831,148.298,221.89,158.772,230.874,167.756z M300.153,43.34
			c30.451,0,55.136,24.685,55.136,55.137c0,30.451-24.686,55.136-55.136,55.136s-55.136-24.685-55.136-55.136
			C245.017,68.025,269.703,43.34,300.153,43.34z"/>
		<path d="M300.153,196.953c-13.274,0-26.175-2.61-38.344-7.757c-11.731-4.961-22.259-12.056-31.289-21.086
			c-9.031-9.031-16.125-19.558-21.086-31.289c-5.147-12.168-7.756-25.07-7.756-38.345c0-13.275,2.609-26.176,7.756-38.344
			c4.962-11.732,12.057-22.259,21.086-31.288c9.029-9.03,19.557-16.124,31.289-21.086C273.977,2.61,286.878,0,300.153,0
			c13.275,0,26.176,2.61,38.344,7.758c11.734,4.962,22.261,12.057,31.288,21.086c9.029,9.028,16.124,19.555,21.088,31.288
			c5.146,12.167,7.756,25.068,7.756,38.345s-2.609,26.177-7.756,38.344c-4.963,11.732-12.058,22.259-21.088,31.288
			c-9.026,9.028-19.553,16.123-31.288,21.086C326.33,194.343,313.428,196.953,300.153,196.953z M300.153,1
			c-13.141,0-25.911,2.583-37.955,7.678c-11.613,4.912-22.034,11.935-30.972,20.873c-8.938,8.938-15.96,19.357-20.872,30.971
			c-5.094,12.044-7.677,24.814-7.677,37.955s2.583,25.911,7.677,37.955c4.911,11.612,11.933,22.033,20.872,30.972
			s19.359,15.961,30.972,20.873c12.045,5.095,24.815,7.678,37.955,7.678c13.14,0,25.911-2.583,37.956-7.678
			c11.615-4.913,22.035-11.936,30.97-20.873c8.938-8.938,15.961-19.358,20.873-30.971c5.095-12.043,7.678-24.813,7.678-37.955
			s-2.583-25.912-7.678-37.955c-4.912-11.613-11.936-22.033-20.873-30.97c-8.936-8.938-19.355-15.96-30.97-20.873
			C326.064,3.583,313.293,1,300.153,1z M300.153,154.113c-30.678,0-55.636-24.958-55.636-55.636
			c0-30.678,24.958-55.637,55.636-55.637c30.678,0,55.636,24.958,55.636,55.637C355.79,129.154,330.832,154.113,300.153,154.113z
			 M300.153,43.84c-30.126,0-54.636,24.51-54.636,54.637c0,30.126,24.51,54.636,54.636,54.636s54.636-24.51,54.636-54.636
			C354.79,68.35,330.28,43.84,300.153,43.84z"/>
	</g>
</g>
</svg>