<svg width="800" height="800" viewBox="0 0 800 800" fill="none" xmlns="http://www.w3.org/2000/svg">
<path d="M795.431 408.32C787.487 308.766 720.6 225.805 625.011 196.953C617.636 194.737 610.167 192.859 602.642 191.364C614.748 184.695 626.75 178.341 638.359 172.416L648.506 167.244L658.027 162.628C687.308 148.422 714.652 136.837 737.102 129.114L791.141 110.547L746.192 75.2719C703.959 42.0953 651.056 23.8422 597.237 23.8422C554.481 23.8297 512.305 35.3687 475.278 57.2047C445.266 74.889 419.638 98.8578 399.981 127.13C380.338 98.8469 354.698 74.8656 324.709 57.2047C287.694 35.3797 245.517 23.8422 202.75 23.8422C148.942 23.8422 96.0391 42.0953 53.7938 75.2609L8.83594 110.547L62.8859 129.112C85.3484 136.836 112.692 148.42 141.961 162.627L151.366 167.195L161.641 172.436C173.202 178.316 185.216 184.669 197.345 191.361C189.831 192.858 182.363 194.736 174.977 196.95C79.4 225.805 12.4891 308.764 4.54531 408.32L0 465.27L50.2937 438.158C71.2125 426.886 98.2672 414.652 128.558 402.789L137.905 399.102L149.108 394.948C161.911 390.23 175.698 385.394 190.112 380.592L195.877 378.667L204.272 375.977C211.705 373.6 219.219 371.256 226.861 368.948C233.703 366.884 240.475 364.913 247.213 363L258.277 359.858L264.886 358.061C288.798 351.567 312.222 345.966 334.302 341.373L321.453 776.158H478.55L465.689 341.373C487.78 345.966 511.194 351.578 535.094 358.061L541.934 359.905L552.777 363.002C559.527 364.914 566.286 366.875 573.117 368.95C580.772 371.258 588.286 373.6 595.708 375.978L604.405 378.772L609.866 380.594C624.258 385.372 638.058 390.206 650.894 394.973L661.992 399.078L671.431 402.789C701.745 414.677 728.811 426.909 749.708 438.158L800 465.27L795.431 408.32ZM353.458 745.067L355.928 662.027H444.061L446.519 745.067H353.458ZM437.542 441.394L440.198 530.975H359.802L362.456 441.394H437.542ZM363.059 420.67L365.575 335.414C377.728 333.327 389.313 331.586 399.994 330.311C410.686 331.586 422.259 333.327 434.423 335.414L436.939 420.67H363.059ZM440.8 551.698L443.456 641.292H356.541L359.186 551.698H440.8ZM682.784 373.844L660.159 311.895L661.691 365.819C648.262 360.833 639.055 356.797 624.536 351.973L600.786 300.022L605.18 346.372C597.608 343.948 589.93 341.548 582.103 339.183C575.122 337.072 568.188 335.066 561.311 333.105L541.411 283.694L538.442 326.739C483.695 311.883 438.748 303.337 399.992 299.023C361.248 303.337 320.081 308.914 265.323 323.77L256.417 262.913L238.686 333.105C231.798 335.066 224.877 337.07 217.87 339.183C210.055 341.548 206.122 342.128 198.528 344.552L199.781 290.142L180.298 351.092C165.78 355.916 157.037 357.377 143.608 362.364L141.798 298.202L117.205 373.844C85.3016 386.344 57.4937 398.961 35.5422 410.789C42.2109 327.272 98.8938 252.395 183.953 226.731C204.048 220.667 224.331 217.791 244.277 217.791C273.581 217.791 302.155 224.006 328.339 235.464C314.308 225.816 299.477 216.017 283.798 206.172L304.116 175.43L267.866 196.327C261.742 192.592 255.572 188.87 249.266 185.158C242.227 181.006 239.628 177.784 232.67 173.852L262.358 142.68L215.033 165.606C201.664 158.206 196.456 153.627 183.689 147.133L213.377 108.539L155.53 134.656C124.706 119.709 96.5859 107.823 72.9859 99.7156C110.141 70.5515 156.052 54.9312 202.75 54.9312C238.895 54.9312 275.517 64.289 308.927 83.9687C353.155 110.048 384.175 149.87 399.992 194.772C415.811 149.872 446.841 110.05 491.059 83.9687C524.467 64.289 561.089 54.9312 597.236 54.9312C643.934 54.9312 689.833 70.5515 726.998 99.7156C703.412 107.822 675.278 119.708 644.445 134.656L578.519 99.6359L617.112 147.134C604.356 153.628 598.338 158.209 584.944 165.608L535.473 138.228L571.655 173.075C564.72 177.006 557.763 181.006 550.723 185.158C544.427 188.869 538.245 192.592 532.134 196.327L495.861 175.43L516.178 206.172C500.5 216.017 485.691 225.816 471.625 235.464C497.833 223.995 526.406 217.78 555.711 217.78C575.645 217.78 595.939 220.667 616.036 226.733C701.095 252.395 757.778 327.273 764.445 410.791C742.505 398.961 714.684 386.345 682.784 373.844Z" fill="white"/>
</svg>
