<svg width="800" height="800" viewBox="0 0 800 800" fill="none" xmlns="http://www.w3.org/2000/svg">
<path d="M685.1 103.5L485.1 203.5C374.167 259 309.133 331.767 291.833 420C267.233 545.033 358.233 685.267 387.2 697.367C391.247 699.093 395.6 699.989 400 700C622.733 700 766.667 582.267 766.667 400C766.667 176.967 736.667 122.733 723.567 109.767C718.623 104.818 712.248 101.55 705.345 100.426C698.441 99.301 691.359 100.377 685.1 103.5ZM431.767 632.167C431.42 574.39 448.552 517.859 480.913 469.994C513.275 422.13 559.354 385.17 613.1 363.967C617.184 362.284 620.894 359.806 624.012 356.678C627.131 353.549 629.596 349.832 631.265 345.742C632.934 341.652 633.774 337.271 633.735 332.854C633.697 328.437 632.78 324.071 631.04 320.011C629.299 315.952 626.769 312.278 623.596 309.204C620.423 306.131 616.671 303.719 612.558 302.108C608.445 300.497 604.052 299.72 599.636 299.822C595.22 299.923 590.868 300.902 586.833 302.7C532.668 323.91 484.735 358.456 447.482 403.133C410.229 447.81 384.862 501.171 373.733 558.267C355.971 518.836 350.243 475.039 357.267 432.367C370.6 365.7 423.567 308.833 514.867 263.167L682.533 179.333C696.728 251.985 702.588 326.02 700 400C700 535.433 598 622.333 431.8 632.167H431.767ZM117.433 179.333C103.25 251.987 97.4011 326.021 100 400C98.9066 445.545 112.454 490.239 138.65 527.511C164.847 564.784 202.31 592.669 245.533 607.067C249.668 608.624 253.453 610.987 256.666 614.02C259.879 617.052 262.457 620.694 264.251 624.732C266.044 628.77 267.017 633.124 267.113 637.542C267.208 641.959 266.424 646.351 264.807 650.463C263.19 654.575 260.771 658.324 257.692 661.493C254.612 664.661 250.934 667.186 246.87 668.92C242.806 670.654 238.438 671.563 234.02 671.594C229.601 671.625 225.221 670.777 221.133 669.1C165.434 649.809 117.267 613.386 83.533 565.048C49.7986 516.709 32.2265 458.935 33.3334 400C33.3334 176.967 63.3334 122.733 76.4334 109.767C81.377 104.818 87.7519 101.55 94.6555 100.426C101.559 99.301 108.642 100.377 114.9 103.5L314.9 203.5C322.834 207.452 328.874 214.393 331.69 222.798C334.506 231.203 333.869 240.382 329.917 248.317C325.965 256.251 319.023 262.291 310.619 265.107C302.214 267.923 293.035 267.285 285.1 263.333L117.433 179.333Z" fill="white"/>
</svg>
