<svg width="800" height="800" viewBox="0 0 800 800" fill="none" xmlns="http://www.w3.org/2000/svg">
<g clip-path="url(#clip0_93_85)">
<g filter="url(#filter0_i_93_85)">
<path d="M757.083 251.72H751.475C745.961 187.706 690.691 136.038 620.364 127.828V84.5872C620.364 73.7508 611.58 64.967 600.743 64.967C589.907 64.967 581.123 73.7508 581.123 84.5872V127.793C565.393 129.63 550.419 133.648 536.582 139.488C510.155 102.667 466.222 76.8458 415.359 71.5044V19.6202C415.359 8.78384 406.575 0 395.739 0C384.902 0 376.118 8.78384 376.118 19.6202V71.5044C326.457 76.7219 283.372 101.441 256.768 136.881C244.824 132.45 232.116 129.363 218.871 127.811V84.5872C218.871 73.7508 210.087 64.967 199.251 64.967C188.415 64.967 179.631 73.7508 179.631 84.5872V127.828C109.306 136.038 54.0363 187.709 48.5225 251.72H42.9144C28.4686 251.72 16.7542 263.432 16.7542 277.88V601.185C16.7542 615.631 28.4686 627.345 42.9144 627.345H157.692L111.617 765.57C108.962 773.546 110.298 782.317 115.213 789.137C120.135 795.96 128.027 800 136.439 800H654.408C662.818 800 670.712 795.96 675.631 789.134C680.549 782.314 681.885 773.544 679.227 765.568L633.153 627.343H757.085C771.531 627.343 783.246 615.628 783.246 601.182V277.88C783.243 263.434 771.531 251.72 757.083 251.72ZM730.923 304.04V342.691C713.153 329.759 691.31 322.101 667.701 322.101H598.314V304.04H730.923ZM534.389 559.329H257.094V541.018H534.389V559.329ZM534.389 488.695H257.094V413.552C257.094 374.166 289.134 342.125 328.517 342.125H462.966C502.349 342.125 534.389 374.166 534.389 413.552V488.695ZM224.18 593.336H566.661L574.51 616.881H216.334L224.18 593.336ZM545.996 263.892V344.498C526.16 320.687 496.307 305.5 462.966 305.5H328.517C295.178 305.5 265.325 320.684 245.49 344.493V263.892H545.996ZM193.169 322.104H132.296C108.687 322.104 86.8444 329.759 69.0747 342.694V304.043H193.169V322.104ZM69.0747 397.395C80.8781 374.462 104.776 358.726 132.296 358.726H193.169V488.695H69.0747V397.395ZM204.997 650.888H585.845L597.182 684.897H193.662L204.997 650.888ZM598.316 358.726H667.704C695.222 358.726 719.122 374.459 730.925 397.395V488.695H598.316V358.726ZM600.746 178.968C651.049 178.968 692.673 210.756 698.842 251.72H598.316V237.729C598.316 223.284 586.605 211.569 572.156 211.569H562.745C562.211 203.122 560.865 194.871 558.823 186.853C571.558 181.807 585.759 178.968 600.746 178.968ZM395.741 122.761C455.744 122.761 505.129 161.883 510.246 211.572H281.239C286.354 161.88 335.739 122.761 395.741 122.761ZM199.254 178.968C211.248 178.968 222.715 180.835 233.36 184.145C230.909 193.007 229.331 202.171 228.738 211.572H219.329C204.883 211.572 193.169 223.286 193.169 237.732V251.723H101.161C107.329 210.756 148.951 178.968 199.254 178.968ZM69.0747 575.025V541.016H186.47L175.133 575.025H69.0747ZM172.733 747.679L182.325 718.904H608.52L618.112 747.679H172.733ZM604.374 541.016H730.925V575.025H615.712L604.374 541.016Z" fill="white"/>
</g>
</g>
<defs>
<filter id="filter0_i_93_85" x="16.7542" y="0" width="766.491" height="804" filterUnits="userSpaceOnUse" color-interpolation-filters="sRGB">
<feFlood flood-opacity="0" result="BackgroundImageFix"/>
<feBlend mode="normal" in="SourceGraphic" in2="BackgroundImageFix" result="shape"/>
<feColorMatrix in="SourceAlpha" type="matrix" values="0 0 0 0 0 0 0 0 0 0 0 0 0 0 0 0 0 0 127 0" result="hardAlpha"/>
<feOffset dy="4"/>
<feGaussianBlur stdDeviation="2"/>
<feComposite in2="hardAlpha" operator="arithmetic" k2="-1" k3="1"/>
<feColorMatrix type="matrix" values="0 0 0 0 0 0 0 0 0 0 0 0 0 0 0 0 0 0 0.25 0"/>
<feBlend mode="normal" in2="shape" result="effect1_innerShadow_93_85"/>
</filter>
<clipPath id="clip0_93_85">
<rect width="800" height="800" fill="white"/>
</clipPath>
</defs>
</svg>
