<svg width="800" height="800" viewBox="0 0 800 800" fill="none" xmlns="http://www.w3.org/2000/svg">
<path d="M470.581 610.878C502.793 571.938 516.256 523.905 504.505 483.079C503.202 478.546 500.115 474.735 495.953 472.52C460.924 453.853 415.276 455.116 372.379 474.948C361.613 429.43 334.613 392.249 298.231 376.1C293.924 374.193 289.021 374.104 284.647 375.866C246.319 391.306 217.306 429.748 205.766 477.262C161.492 455.234 113.712 453.15 77.3677 472.52C73.2061 474.737 70.1193 478.546 68.816 483.079C57.0653 523.903 70.5318 571.942 102.74 610.878C11.255 626.748 0 649.879 0 666.433C0 691.234 28.6798 707.812 92.9915 720.19C144.894 730.181 213.673 735.682 286.662 735.682C359.648 735.682 428.427 730.181 480.332 720.19C544.641 707.812 573.321 691.234 573.321 666.433C573.319 649.877 562.064 626.746 470.581 610.878ZM377.344 511.486C410.011 493.589 445.809 489.307 472.698 500.094C478.959 536.15 458.548 580.682 421.016 611.079C392.48 634.19 357.986 645.9 328.203 644.238C357.857 616.399 376.618 571.973 377.472 522.939C377.541 519.097 377.497 515.276 377.344 511.486ZM235.196 520.466C236.036 472.173 258.556 428.667 290.822 411.405C322.465 429.777 343.462 474.04 342.622 522.334C341.782 570.627 319.262 614.133 286.998 631.397C255.353 613.022 234.359 568.759 235.196 520.466ZM100.619 500.094C128.765 488.8 166.668 494.021 200.528 514.083C200.439 516 200.377 517.927 200.342 519.86C199.481 569.653 217.242 615.347 246.716 644.134C216.555 646.341 181.347 634.604 152.301 611.079C114.77 580.684 94.3587 536.15 100.619 500.094ZM461.822 688.116C413.582 696.309 351.375 700.825 286.661 700.825C221.946 700.825 159.737 696.311 111.497 688.116C63.3047 679.928 44.5457 670.923 37.7156 666.384C46.823 660.418 73.2584 649.697 132.589 641.529C133.147 641.452 133.695 641.349 134.233 641.223C182.178 678.127 241.71 689.231 286.659 670.069C331.605 689.227 391.136 678.129 439.082 641.223C439.62 641.349 440.17 641.452 440.73 641.529C500.059 649.693 526.494 660.416 535.6 666.382C528.774 670.923 510.013 679.928 461.822 688.116ZM682.405 183.034V119.71C682.405 89.1687 657.558 64.3193 627.015 64.3193H250.93C220.389 64.3193 195.54 89.1668 195.54 119.71V183.034C129.288 191.607 77.9448 248.389 77.9448 316.938V417.356C77.9448 426.982 85.747 434.785 95.3734 434.785C105 434.785 112.802 426.982 112.802 417.356V316.938C112.802 261.706 157.735 216.77 212.968 216.77H601.482V254.261H572.843C563.216 254.261 555.414 262.063 555.414 271.689V404.798C555.414 414.424 563.216 422.226 572.843 422.226H664.976C674.603 422.226 682.405 414.424 682.405 404.798V271.689C682.405 262.063 674.603 254.261 664.976 254.261H636.339V216.77H664.976C720.208 216.77 765.145 261.705 765.145 316.938V552.13C765.145 607.361 720.21 652.296 664.976 652.296H623.616C613.99 652.296 606.188 660.098 606.188 669.725C606.188 679.351 613.99 687.153 623.616 687.153H664.974C739.428 687.153 800 626.583 800 552.13V316.938C800 248.389 748.659 191.605 682.405 183.034ZM647.548 289.12V387.371H590.271V289.12H647.548ZM647.548 181.912H230.399V119.708C230.399 108.385 239.609 99.1747 250.932 99.1747H627.017C638.34 99.1747 647.55 108.385 647.55 119.708V181.912H647.548Z" fill="white"/>
</svg>
