<svg width="667" height="667" viewBox="0 0 667 667" fill="none" xmlns="http://www.w3.org/2000/svg">
<path d="M233.34 100.333H140.007C102.67 100.333 83.9874 100.333 69.7267 107.6C57.1824 113.991 46.991 124.182 40.5997 136.727C33.3334 150.987 33.3334 169.67 33.3334 207.007V527.007C33.3334 564.343 33.3334 583.003 40.5997 597.263C46.991 609.807 57.1824 620.017 69.7267 626.407C83.9734 633.667 102.633 633.667 139.897 633.667H460.103C497.367 633.667 516 633.667 530.247 626.407C542.79 620.017 553.017 609.797 559.407 597.253C566.667 583.007 566.667 564.367 566.667 527.103V433.667M433.333 133.667L233.333 333.667V433.667H333.333L533.333 233.667M433.333 133.667L533.333 33.6666L633.333 133.667L533.333 233.667M433.333 133.667L533.333 233.667" stroke="white" stroke-width="66.6667" stroke-linecap="round" stroke-linejoin="round"/>
</svg>
