<svg width="808" height="808" viewBox="0 0 808 808" fill="none" xmlns="http://www.w3.org/2000/svg">
<g clip-path="url(#clip0_70_13)" filter="url(#filter0_d_70_13)">
<path d="M70.6667 633.333C70.6667 503.333 174 400 304 400C387.333 400 464 443.333 507.333 516.667L564 483.333C530.667 426.667 480.667 383.333 424 360C474 323.333 504 263.333 504 200C504 90 414 0 304 0C194 0 104 90 104 200C104 263.333 134 323.333 184 360C77.3333 406.667 4 510 4 633.333V800H404V733.333H70.6667V633.333ZM170.667 200C170.667 126.667 230.667 66.6667 304 66.6667C377.333 66.6667 437.333 126.667 437.333 200C437.333 273.333 377.333 333.333 304 333.333C230.667 333.333 170.667 273.333 170.667 200Z" fill="white"/>
<path d="M807.333 526.667L554 780L397.333 623.333L444 576.667L554 686.667L760.667 480L807.333 526.667Z" fill="white"/>
</g>
<defs>
<filter id="filter0_d_70_13" x="0" y="0" width="808" height="808" filterUnits="userSpaceOnUse" color-interpolation-filters="sRGB">
<feFlood flood-opacity="0" result="BackgroundImageFix"/>
<feColorMatrix in="SourceAlpha" type="matrix" values="0 0 0 0 0 0 0 0 0 0 0 0 0 0 0 0 0 0 127 0" result="hardAlpha"/>
<feOffset dy="4"/>
<feGaussianBlur stdDeviation="2"/>
<feComposite in2="hardAlpha" operator="out"/>
<feColorMatrix type="matrix" values="0 0 0 0 0 0 0 0 0 0 0 0 0 0 0 0 0 0 0.25 0"/>
<feBlend mode="normal" in2="BackgroundImageFix" result="effect1_dropShadow_70_13"/>
<feBlend mode="normal" in="SourceGraphic" in2="effect1_dropShadow_70_13" result="shape"/>
</filter>
<clipPath id="clip0_70_13">
<rect width="800" height="800" fill="white" transform="translate(4)"/>
</clipPath>
</defs>
</svg>
