<svg width="784" height="540" viewBox="0 0 784 540" fill="none" xmlns="http://www.w3.org/2000/svg">
<path d="M366.252 520.256C365.46 523.443 364.047 526.442 362.093 529.082C360.14 531.722 357.685 533.951 354.868 535.64C352.052 537.33 348.93 538.447 345.682 538.928C342.433 539.41 339.121 539.245 335.936 538.444L241.75 514.9C234.108 512.978 227.025 509.288 221.071 504.127L150.6 442.869C145.596 438.519 142.524 432.36 142.061 425.746C141.598 419.132 143.781 412.604 148.131 407.6C152.481 402.596 158.64 399.524 165.254 399.061C171.869 398.598 178.396 400.781 183.4 405.131L253.878 466.392L348.064 489.939C351.249 490.735 354.246 492.151 356.884 494.105C359.522 496.06 361.749 498.515 363.438 501.33C365.127 504.145 366.245 507.265 366.728 510.513C367.211 513.76 367.049 517.071 366.252 520.256ZM780.632 222.611C778.607 228.938 775.332 234.793 771.002 239.83C766.672 244.868 761.375 248.985 755.425 251.937L682.712 288.294L636.003 342.936C635.84 343.127 635.661 343.302 635.494 343.488C635.339 343.657 635.187 343.825 635.03 343.989C634.911 344.114 634.801 344.247 634.679 344.369L519.689 459.364C510.261 468.733 497.509 473.99 484.218 473.988C480.168 473.989 476.133 473.492 472.203 472.511L291.087 427.232C284.29 425.542 277.926 422.435 272.414 418.113L103.575 286.088L28.5752 248.588C22.6368 245.618 17.3493 241.495 13.0213 236.46C8.69328 231.424 5.41141 225.578 3.36717 219.26C1.32294 212.943 0.557279 206.282 1.11487 199.666C1.67247 193.05 3.54214 186.611 6.61481 180.725L83.4672 33.546C89.5824 21.9724 99.9723 13.2419 112.426 9.21208C124.88 5.18224 138.415 6.17117 150.151 11.9685L220.073 46.9292L372.173 2.58755C383.63 -0.748394 395.902 0.119073 406.777 5.03352L509.892 51.6919H561.101L633.852 15.318C645.587 9.51625 659.123 8.52515 671.578 12.5557C684.033 16.5863 694.422 25.32 700.533 36.8969L777.385 184.073C780.479 189.952 782.36 196.393 782.918 203.013C783.476 209.633 782.698 216.297 780.632 222.611ZM578.635 329.702L479.729 257.771L454.5 276.692C432.821 292.821 406.521 301.532 379.5 301.532C352.479 301.532 326.178 292.821 304.5 276.692L287.56 263.987C281.829 259.689 277.089 254.21 273.66 247.92C270.232 241.631 268.194 234.678 267.686 227.532C267.179 220.387 268.212 213.216 270.717 206.505C273.221 199.793 277.139 193.699 282.204 188.633L404.5 66.3371C406.287 64.5771 408.202 62.9523 410.23 61.4762L386.168 50.5885L233.907 94.9771L148.795 257.975L303.215 378.727L484.331 424.006L578.635 329.702ZM637.019 264.797L551.849 101.692H504.57L504.485 101.698C504.445 101.698 504.407 101.692 504.369 101.692H439.855L317.561 223.988L334.499 236.692C347.506 246.37 363.287 251.596 379.5 251.596C395.713 251.596 411.493 246.37 424.501 236.692L464.501 206.692C468.777 203.484 473.97 201.731 479.316 201.692C484.662 201.652 489.88 203.329 494.203 206.474L613.013 292.881L637.019 264.797Z" fill="white"/>
</svg>
