<svg width="670" height="642" viewBox="0 0 670 642" fill="none" xmlns="http://www.w3.org/2000/svg">
<path d="M309.833 72.1333C317.55 49.936 321.407 38.8376 327.113 35.7616C332.05 33.0993 337.993 33.0993 342.933 35.7616C348.637 38.8376 352.493 49.936 360.21 72.1333L411.22 218.88C413.417 225.197 414.513 228.356 416.493 230.708C418.24 232.786 420.47 234.406 422.987 235.426C425.833 236.581 429.177 236.649 435.863 236.785L591.19 239.951C614.687 240.429 626.433 240.669 631.123 245.144C635.18 249.017 637.017 254.671 636.01 260.19C634.85 266.567 625.487 273.663 606.76 287.863L482.957 381.72C477.627 385.763 474.963 387.783 473.337 390.39C471.9 392.697 471.05 395.317 470.857 398.023C470.64 401.09 471.607 404.29 473.543 410.693L518.533 559.397C525.337 581.89 528.74 593.137 525.933 598.977C523.503 604.033 518.693 607.527 513.133 608.277C506.71 609.14 497.067 602.43 477.777 589.007L350.253 500.27C344.763 496.45 342.02 494.54 339.037 493.797C336.4 493.143 333.643 493.143 331.01 493.797C328.027 494.54 325.28 496.45 319.79 500.27L192.268 589.007C172.979 602.43 163.334 609.14 156.911 608.277C151.352 607.527 146.542 604.033 144.112 598.977C141.305 593.137 144.708 581.89 151.513 559.397L196.501 410.693C198.438 404.29 199.406 401.09 199.188 398.023C198.995 395.317 198.144 392.697 196.708 390.39C195.082 387.783 192.417 385.763 187.087 381.72L63.286 287.863C44.5594 273.663 35.196 266.567 34.0337 260.19C33.0274 254.671 34.8647 249.017 38.9224 245.144C43.6104 240.669 55.358 240.43 78.853 239.951L234.18 236.785C240.867 236.649 244.21 236.581 247.059 235.426C249.575 234.406 251.805 232.786 253.552 230.708C255.531 228.356 256.629 225.197 258.825 218.88L309.833 72.1333Z" stroke="white" stroke-width="66.6667" stroke-linecap="round" stroke-linejoin="round"/>
</svg>
